<?xml version="1.0" encoding="UTF-8"?>
<svg xmlns="http://www.w3.org/2000/svg" xmlns:xlink="http://www.w3.org/1999/xlink" width="40px" height="40px" viewBox="0 0 40 40" version="1.1">
<g id="surface1">
<path style=" stroke:none;fill-rule:nonzero;fill:rgb(0%,0%,0%);fill-opacity:1;" d="M 26.875 3.75 L 13.125 3.75 C 11.398438 3.75 10 5.148438 10 6.875 L 10 33.125 C 10 34.851562 11.398438 36.25 13.125 36.25 L 26.875 36.25 C 28.601562 36.25 30 34.851562 30 33.125 L 30 6.875 C 30 5.148438 28.601562 3.75 26.875 3.75 Z M 28.75 33.125 C 28.75 34.160156 27.910156 35 26.875 35 L 13.125 35 C 12.089844 35 11.25 34.160156 11.25 33.125 L 11.25 6.875 C 11.25 5.839844 12.089844 5 13.125 5 L 26.875 5 C 27.910156 5 28.75 5.839844 28.75 6.875 Z M 28.75 33.125 "/>
<path style=" stroke:none;fill-rule:nonzero;fill:rgb(0%,0%,0%);fill-opacity:1;" d="M 12.5 30 L 27.5 30 L 27.5 8.75 L 12.5 8.75 Z M 13.75 10 L 26.25 10 L 26.25 28.75 L 13.75 28.75 Z M 13.75 10 "/>
<path style=" stroke:none;fill-rule:nonzero;fill:rgb(0%,0%,0%);fill-opacity:1;" d="M 21.25 32.5 C 21.25 33.191406 20.691406 33.75 20 33.75 C 19.308594 33.75 18.75 33.191406 18.75 32.5 C 18.75 31.808594 19.308594 31.25 20 31.25 C 20.691406 31.25 21.25 31.808594 21.25 32.5 Z M 21.25 32.5 "/>
<path style=" stroke:none;fill-rule:nonzero;fill:rgb(0%,0%,0%);fill-opacity:1;" d="M 17.5 6.25 L 22.5 6.25 L 22.5 7.5 L 17.5 7.5 Z M 17.5 6.25 "/>
</g>
</svg>
