<?xml version="1.0" encoding="UTF-8"?>
<svg xmlns="http://www.w3.org/2000/svg" xmlns:xlink="http://www.w3.org/1999/xlink" width="40px" height="40px" viewBox="0 0 40 40" version="1.1">
<g id="surface1">
<path style=" stroke:none;fill-rule:nonzero;fill:rgb(0%,0%,0%);fill-opacity:1;" d="M 35 5 L 5 5 C 2.238281 5 0 7.238281 0 10 L 0 30 C 0 32.761719 2.238281 35 5 35 L 35 35 C 37.761719 35 40 32.761719 40 30 L 40 10 C 40 7.238281 37.761719 5 35 5 Z M 26.769531 18.34375 L 37.351562 9.273438 C 37.425781 9.507812 37.5 9.742188 37.5 10 L 37.5 30 C 37.5 30.171875 37.433594 30.328125 37.398438 30.492188 Z M 35 7.5 C 35.164062 7.5 35.3125 7.5625 35.46875 7.59375 L 20 20.855469 L 4.53125 7.59375 C 4.6875 7.5625 4.835938 7.5 5 7.5 Z M 2.597656 30.488281 C 2.566406 30.324219 2.5 30.171875 2.5 30 L 2.5 10 C 2.5 9.742188 2.574219 9.507812 2.648438 9.273438 L 13.226562 18.339844 Z M 5 32.5 C 4.746094 32.5 4.519531 32.425781 4.289062 32.355469 L 15.125 19.96875 L 19.1875 23.445312 C 19.421875 23.648438 19.710938 23.75 20 23.75 C 20.289062 23.75 20.578125 23.648438 20.8125 23.445312 L 24.875 19.96875 L 35.710938 32.355469 C 35.484375 32.425781 35.253906 32.5 35 32.5 Z M 5 32.5 "/>
</g>
</svg>
