<?xml version="1.0" encoding="utf-8"?>
<!-- Generator: Adobe Illustrator 16.0.3, SVG Export Plug-In . SVG Version: 6.00 Build 0)  -->
<!DOCTYPE svg PUBLIC "-//W3C//DTD SVG 1.1//EN" "http://www.w3.org/Graphics/SVG/1.1/DTD/svg11.dtd">
<svg version="1.1" id="Capa_1" xmlns="http://www.w3.org/2000/svg" xmlns:xlink="http://www.w3.org/1999/xlink" x="0px" y="0px"
	 width="595.279px" height="841.891px" viewBox="0 0 595.279 841.891" enable-background="new 0 0 595.279 841.891"
	 xml:space="preserve">
<path fill="#02FDD8" stroke="#02FDD8" stroke-miterlimit="10" d="M464.822,51.221l-86.561,306.536
	c-3.314,11.631-15.283,18.336-26.781,15.053c-11.496-3.353-18.123-15.464-14.877-27.096l86.561-306.522
	c3.314-11.627,15.285-18.36,26.781-15.038C461.441,27.477,468.068,39.596,464.822,51.221L464.822,51.221z M500.454,100.379
	l75.742,76.632c8.453,8.553,8.453,22.374,0,30.926l-75.742,76.633c-8.451,8.553-22.113,8.553-30.566,0s-8.453-22.374,0-30.926
	l60.391-61.17l-60.391-61.169c-8.453-8.553-8.453-22.374,0-30.927C478.341,91.827,492.003,91.827,500.454,100.379L500.454,100.379z
	 M125.907,131.306l-60.425,61.169l60.425,61.17c8.453,8.552,8.453,22.373,0,30.926c-8.454,8.553-22.114,8.553-30.567,0
	l-75.761-76.633c-8.451-8.553-8.451-22.374,0-30.926l75.761-76.632c8.454-8.552,22.114-8.552,30.567,0
	C134.361,108.932,134.361,122.753,125.907,131.306L125.907,131.306z"/>
<text transform="matrix(1.2539 0 0 1 117.2468 251.6616)" fill="#02FDD8" font-family="'Dubai-Bold'" font-size="183.4986">RT</text>
</svg>
